# xmcd
#
# Track frame offsets:
#	150
#	18955
#	37605
#	57439
#	78110
#	98562
#	119295
#	140042
#	159572
#	176580
#	195005
#	213752
#
# Disc length: 3106 seconds
#
# Revision: 0
# Processed by: cddbd v1.5.2PL0 Copyright (c) Steve Scherf et al.
# Submitted via: EasyCDDAExtractor 15.3.0.1
#
DISCID=880c200c
DTITLE=Maria Alejandra - Locuras
DYEAR=1997
DGENRE=Latin
TTITLE0=Como Pez En El Agua
TTITLE1=Cosa Loca
TTITLE2=Estoy Aqui
TTITLE3=Ay Amor
TTITLE4=No Creo En Tus Mentiras
TTITLE5=Dos Gotas De Agua, Dos Llamas Del Fuego
TTITLE6=Hice Bien Quererte
TTITLE7=Como La Flor
TTITLE8=Puedo Vivir Sin Ti
TTITLE9=Azucar Amargo
TTITLE10=Mar De Emociones
TTITLE11=Me Libere
EXTD=
EXTT0=
EXTT1=
EXTT2=
EXTT3=
EXTT4=
EXTT5=
EXTT6=
EXTT7=
EXTT8=
EXTT9=
EXTT10=
EXTT11=
PLAYORDER=
